<svg width="30" height="30" viewBox="0 0 30 30" fill="none" xmlns="http://www.w3.org/2000/svg">
<g clip-path="url(#clip0)">
<path d="M15 2.5C8.09687 2.5 2.5 8.09687 2.5 15C2.5 21.9031 8.09687 27.5 15 27.5C21.9031 27.5 27.5 21.9031 27.5 15C27.5 8.09687 21.9031 2.5 15 2.5ZM15 26C8.93437 26 4 21.0656 4 15C4 8.93437 8.93437 4 15 4C21.0656 4 26 8.93437 26 15C26 21.0656 21.0656 26 15 26ZM15 9.53125C16.5672 9.53125 17.8422 10.5828 17.8422 11.875C17.8422 12.3062 18.2656 12.6562 18.7891 12.6562C19.3125 12.6562 19.7359 12.3062 19.7359 11.875C19.7359 9.91875 17.9781 8.30937 15.7 8.02656V7.1875C15.7 6.75625 15.35 6.40625 14.9187 6.40625C14.4875 6.40625 14.1375 6.75625 14.1375 7.1875V8.04063C11.9375 8.37656 10.2641 9.96406 10.2641 11.875C10.2641 13.9734 12.3141 14.8453 14.2391 15.5703V15.5719C14.4922 15.6672 15.1688 15.9219 15.3953 16.0109C16.9297 16.6125 17.8422 17.1281 17.8422 18.125C17.8422 19.4172 16.5672 20.4688 15 20.4688C13.4328 20.4688 12.1578 19.4172 12.1578 18.125C12.1578 17.6938 11.7344 17.3438 11.2109 17.3438C10.6875 17.3438 10.2641 17.6922 10.2641 18.125C10.2641 20.0359 11.9375 21.6234 14.1375 21.9594V22.8125C14.1375 23.2437 14.4875 23.5938 14.9187 23.5938C15.35 23.5938 15.7 23.2437 15.7 22.8125V21.9719C17.9781 21.6906 19.7359 20.0797 19.7359 18.1234C19.7359 15.9141 17.4641 15.0641 15.4578 14.3125L15.3922 14.2875L15.325 14.2625C13.3609 13.5281 12.1578 13.0188 12.1578 11.875C12.1578 10.5813 13.4328 9.53125 15 9.53125Z" fill="#879D2C"/>
</g>
<defs>
<clipPath id="clip0">
<rect width="25" height="25" fill="white" transform="translate(2.5 2.5)"/>
</clipPath>
</defs>
</svg>
