<svg width="30" height="30" viewBox="0 0 30 30" fill="none" xmlns="http://www.w3.org/2000/svg">
<g clip-path="url(#clip0)">
<path d="M15 2.5C8.1087 2.5 2.5 8.1087 2.5 15C2.5 21.8913 8.1087 27.5 15 27.5C21.8913 27.5 27.5 21.8929 27.5 15C27.5 8.10714 21.8913 2.5 15 2.5ZM15 25.9472C8.96273 25.9472 4.0528 21.0357 4.0528 15C4.0528 8.96429 8.96273 4.0528 15 4.0528C21.0373 4.0528 25.9472 8.96429 25.9472 15C25.9472 21.0357 21.0373 25.9472 15 25.9472ZM15.7764 14.6755V6.38199C15.7764 5.95342 15.4286 5.60559 15 5.60559C14.5714 5.60559 14.2236 5.95342 14.2236 6.38199V15C14.2236 15.0016 14.2236 15.0031 14.2236 15.0031C14.2236 15.1056 14.2438 15.205 14.2826 15.2997C14.3245 15.396 14.3835 15.4814 14.4565 15.5528V15.5543L18.455 19.4752C18.6056 19.6242 18.8028 19.6972 18.9984 19.6972C19.2003 19.6972 19.4006 19.6196 19.5528 19.4643C19.8525 19.1584 19.8463 18.6662 19.5404 18.3665L15.7764 14.6755Z" fill="#3998B9"/>
</g>
<defs>
<clipPath id="clip0">
<rect width="25" height="25" fill="white" transform="translate(2.5 2.5)"/>
</clipPath>
</defs>
</svg>
